<svg version="1.1" xmlns="http://www.w3.org/2000/svg" viewBox="0 0 898.7777777777776 698.5555725097656">
  <!-- svg-source:excalidraw -->
  <defs>
    <style>
      @font-face {
        font-family: "Virgil";
        src: url("https://excalidraw.com/FG_Virgil.woff2");
      }
      @font-face {
        font-family: "Cascadia";
        src: url("https://excalidraw.com/Cascadia.woff2");
      }
    </style>
  </defs>
  <g transform="translate(20.3333740234375 384.0000305175782) rotate(0 41.33331298828125 18.666641235351562)"><path d="M41.33331298828125 0 C49.72059352423564 -0.23884361491747677, 61.041544686134685 1.7810759591642689, 67.81946204918984 4.336024340302968 C74.59737941224499 6.890972721441667, 80.42254751225784 11.406757824040506, 82.00081716661218 15.329690286832195 C83.57908682096652 19.25262274962388, 81.64368213254826 24.405197624564035, 77.28907997531587 27.8736191170531 C72.93447781808348 31.342040609542163, 64.13764033449922 34.737649487771556, 55.87320422321781 36.14021924176657 C47.608768111936406 37.54278899576159, 36.0372856988332 37.6039180052862, 27.70246330762744 36.28903764102321 C19.367640916421678 34.97415727676022, 10.397331190262996 31.67240742818976, 5.864269875983254 28.250937056188622 C1.3312085617035114 24.829466684187484, -0.870549802120582 19.698747321842593, 0.5040954219489819 15.760215409016384 C1.8787406460185458 11.821683496190177, 7.468414808487634 7.24559687158453, 14.112141220400638 4.6197455792313775 C20.75586763231364 1.9938942868782257, 35.829591932113566 0.7750652514360349, 40.366453893427 0.005107654897472003 C44.903315854740434 -0.7648499416410909, 41.17216980580554 -0.06137086163492652, 41.33331298828124 0 C41.49445617075695 0.06137086163492652, 41.33331298828125 0.06222213745117183, 41.33331298828125 0.3733328247070311 M41.33331298828125 0 C49.72059352423564 -0.23884361491747677, 61.041544686134685 1.7810759591642689, 67.81946204918984 4.336024340302968 C74.59737941224499 6.890972721441667, 80.42254751225784 11.406757824040506, 82.00081716661218 15.329690286832195 C83.57908682096652 19.25262274962388, 81.64368213254826 24.405197624564035, 77.28907997531587 27.8736191170531 C72.93447781808348 31.342040609542163, 64.13764033449922 34.737649487771556, 55.87320422321781 36.14021924176657 C47.608768111936406 37.54278899576159, 36.0372856988332 37.6039180052862, 27.70246330762744 36.28903764102321 C19.367640916421678 34.97415727676022, 10.397331190262996 31.67240742818976, 5.864269875983254 28.250937056188622 C1.3312085617035114 24.829466684187484, -0.870549802120582 19.698747321842593, 0.5040954219489819 15.760215409016384 C1.8787406460185458 11.821683496190177, 7.468414808487634 7.24559687158453, 14.112141220400638 4.6197455792313775 C20.75586763231364 1.9938942868782257, 35.829591932113566 0.7750652514360349, 40.366453893427 0.005107654897472003 C44.903315854740434 -0.7648499416410909, 41.17216980580554 -0.06137086163492652, 41.33331298828124 0 C41.49445617075695 0.06137086163492652, 41.33331298828125 0.06222213745117183, 41.33331298828125 0.3733328247070311" stroke="#000000" stroke-width="1" fill="none"></path></g><g transform="translate(20.33331298828125 444.666732788086) rotate(0 41.33331298828125 18.666641235351562)"><path d="M41.33331298828125 0 C49.72059352423564 -0.23884361491747677, 61.041544686134685 1.7810759591642689, 67.81946204918984 4.336024340302968 C74.59737941224499 6.890972721441667, 80.42254751225784 11.406757824040506, 82.00081716661218 15.329690286832195 C83.57908682096652 19.25262274962388, 81.64368213254826 24.405197624564035, 77.28907997531587 27.8736191170531 C72.93447781808348 31.342040609542163, 64.13764033449922 34.737649487771556, 55.87320422321781 36.14021924176657 C47.608768111936406 37.54278899576159, 36.0372856988332 37.6039180052862, 27.70246330762744 36.28903764102321 C19.367640916421678 34.97415727676022, 10.397331190262996 31.67240742818976, 5.864269875983254 28.250937056188622 C1.3312085617035114 24.829466684187484, -0.870549802120582 19.698747321842593, 0.5040954219489819 15.760215409016384 C1.8787406460185458 11.821683496190177, 7.468414808487634 7.24559687158453, 14.112141220400638 4.6197455792313775 C20.75586763231364 1.9938942868782257, 35.829591932113566 0.7750652514360349, 40.366453893427 0.005107654897472003 C44.903315854740434 -0.7648499416410909, 41.17216980580554 -0.06137086163492652, 41.33331298828124 0 C41.49445617075695 0.06137086163492652, 41.33331298828125 0.06222213745117183, 41.33331298828125 0.3733328247070311 M41.33331298828125 0 C49.72059352423564 -0.23884361491747677, 61.041544686134685 1.7810759591642689, 67.81946204918984 4.336024340302968 C74.59737941224499 6.890972721441667, 80.42254751225784 11.406757824040506, 82.00081716661218 15.329690286832195 C83.57908682096652 19.25262274962388, 81.64368213254826 24.405197624564035, 77.28907997531587 27.8736191170531 C72.93447781808348 31.342040609542163, 64.13764033449922 34.737649487771556, 55.87320422321781 36.14021924176657 C47.608768111936406 37.54278899576159, 36.0372856988332 37.6039180052862, 27.70246330762744 36.28903764102321 C19.367640916421678 34.97415727676022, 10.397331190262996 31.67240742818976, 5.864269875983254 28.250937056188622 C1.3312085617035114 24.829466684187484, -0.870549802120582 19.698747321842593, 0.5040954219489819 15.760215409016384 C1.8787406460185458 11.821683496190177, 7.468414808487634 7.24559687158453, 14.112141220400638 4.6197455792313775 C20.75586763231364 1.9938942868782257, 35.829591932113566 0.7750652514360349, 40.366453893427 0.005107654897472003 C44.903315854740434 -0.7648499416410909, 41.17216980580554 -0.06137086163492652, 41.33331298828124 0 C41.49445617075695 0.06137086163492652, 41.33331298828125 0.06222213745117183, 41.33331298828125 0.3733328247070311" stroke="#000000" stroke-width="1" fill="none"></path></g><g><g transform="translate(19.66668701171875 402.6666870117188) rotate(0 0 30.333343505859375)"><path d="M0 0 C0 10.111114501953125, 0 50.555572509765625, 0 60.66668701171875 M0 0 C0 10.111114501953125, 0 50.555572509765625, 0 60.66668701171875" stroke="#000000" stroke-width="1" fill="none"></path></g></g><g><g transform="translate(103.3333740234375 400.33337402343756) rotate(0 0 30.333343505859375)"><path d="M0 0 C0 10.111114501953125, 0 50.555572509765625, 0 60.66668701171875 M0 0 C0 10.111114501953125, 0 50.555572509765625, 0 60.66668701171875" stroke="#000000" stroke-width="1" fill="none"></path></g></g><g transform="translate(264.33337402343705 45.33334350585943) rotate(0 142.6666259765625 243.99998474121094)"><path d="M0 0 C74.09115588140025 0, 148.1823117628005 0, 285.333251953125 0 M0 0 C93.1042260358811 0, 186.2084520717622 0, 285.333251953125 0 M285.333251953125 0 C285.333251953125 126.12789472008265, 285.333251953125 252.2557894401653, 285.333251953125 487.9999694824219 M285.333251953125 0 C285.333251953125 147.9322175215136, 285.333251953125 295.8644350430272, 285.333251953125 487.9999694824219 M285.333251953125 487.9999694824219 C196.79803150516477 487.9999694824219, 108.26281105720454 487.9999694824219, 0 487.9999694824219 M285.333251953125 487.9999694824219 C191.6505468558023 487.9999694824219, 97.96784175847961 487.9999694824219, 0 487.9999694824219 M0 487.9999694824219 C0 321.85481814391824, 0 155.7096668054146, 0 0 M0 487.9999694824219 C0 326.6890692305108, 0 165.37816897859977, 0 0" stroke="#000000" stroke-width="1" fill="none"></path></g><g transform="translate(300.99999999999955 405.33337402343756) rotate(0 44.66668701171875 34)"><path d="M0 0 C31.36595057325151 0, 62.73190114650302 0, 89.3333740234375 0 M0 0 C28.755111333903802 0, 57.510222667807604 0, 89.3333740234375 0 M89.3333740234375 0 C89.3333740234375 14.853604399412871, 89.3333740234375 29.707208798825743, 89.3333740234375 68 M89.3333740234375 0 C89.3333740234375 20.482214427739383, 89.3333740234375 40.964428855478765, 89.3333740234375 68 M89.3333740234375 68 C58.55629623059092 68, 27.77921843774434 68, 0 68 M89.3333740234375 68 C54.06144048254948 68, 18.789506941661458 68, 0 68 M0 68 C0 54.26806866005063, 0 40.53613732010126, 0 0 M0 68 C0 44.00007903501391, 0 20.000158070027823, 0 0" stroke="#000000" stroke-width="1" fill="none"></path></g><g transform="translate(308.8888753255203 420.1667073567709) rotate(0 36.90119764539929 16.944427490234375)"><text x="36.90119764539929" y="12.944427490234375" font-family="Helvetica" font-size="15.061713324652786px" fill="#000000" text-anchor="middle" style="white-space: pre;" direction="ltr">nfs client </text><text x="36.90119764539929" y="29.88885498046875" font-family="Helvetica" font-size="15.061713324652786px" fill="#000000" text-anchor="middle" style="white-space: pre;" direction="ltr">provisioner</text></g><g transform="translate(407 121.33334350585943) rotate(0 54.66668701171875 24)"><path d="M0 0 C33.87475186798377 0, 67.74950373596754 0, 109.3333740234375 0 M0 0 C35.47924266679172 0, 70.95848533358344 0, 109.3333740234375 0 M109.3333740234375 0 C109.3333740234375 17.11832427084446, 109.3333740234375 34.23664854168892, 109.3333740234375 48 M109.3333740234375 0 C109.3333740234375 13.351077613234521, 109.3333740234375 26.702155226469042, 109.3333740234375 48 M109.3333740234375 48 C81.73191795354676 48, 54.13046188365601 48, 0 48 M109.3333740234375 48 C86.70080879983445 48, 64.0682435762314 48, 0 48 M0 48 C0 32.458820924162865, 0 16.91764184832573, 0 0 M0 48 C0 29.047256317734718, 0 10.094512635469435, 0 0" stroke="#000000" stroke-width="1" fill="none"></path></g><g transform="translate(419.16668701171875 133.83334350585943) rotate(0 42.5 11.5)"><text x="42.5" y="18" font-family="Helvetica" font-size="20px" fill="#000000" text-anchor="middle" style="white-space: pre;" direction="ltr">pod-jsjkjn</text></g><g transform="translate(407.666748046875 200.00000000000006) rotate(0 55 22.333343505859375)"><path d="M0 0 C33.58447002433241 0, 67.16894004866482 0, 110 0 M0 0 C24.97514990903437 0, 49.95029981806874 0, 110 0 M110 0 C110 14.168451598001354, 110 28.33690319600271, 110 44.66668701171875 M110 0 C110 12.071421287913347, 110 24.142842575826695, 110 44.66668701171875 M110 44.66668701171875 C77.82503689266741 44.66668701171875, 45.65007378533481 44.66668701171875, 0 44.66668701171875 M110 44.66668701171875 C81.0073624458164 44.66668701171875, 52.014724891632795 44.66668701171875, 0 44.66668701171875 M0 44.66668701171875 C0 34.46268577477973, 0 24.25868453784071, 0 0 M0 44.66668701171875 C0 28.428128070511352, 0 12.189569129303955, 0 0" stroke="#000000" stroke-width="1" fill="none"></path></g><g transform="translate(416.666748046875 210.83334350585943) rotate(0 46 11.5)"><text x="46" y="18" font-family="Helvetica" font-size="20px" fill="#000000" text-anchor="middle" style="white-space: pre;" direction="ltr">pod-skenc</text></g><g transform="translate(407.33331298828125 265.33337402343756) rotate(0 54.66668701171875 24)"><path d="M0 0 C25.558403494504205 0, 51.11680698900841 0, 109.3333740234375 0 M0 0 C42.132843229071185 0, 84.26568645814237 0, 109.3333740234375 0 M109.3333740234375 0 C109.3333740234375 12.058176031708719, 109.3333740234375 24.116352063417438, 109.3333740234375 48 M109.3333740234375 0 C109.3333740234375 15.080262717604638, 109.3333740234375 30.160525435209276, 109.3333740234375 48 M109.3333740234375 48 C86.43357178514732 48, 63.53376954685714 48, 0 48 M109.3333740234375 48 C86.0722552389839 48, 62.811136454530285 48, 0 48 M0 48 C0 33.30937443673611, 0 18.618748873472214, 0 0 M0 48 C0 33.2983690649271, 0 18.596738129854202, 0 0" stroke="#000000" stroke-width="1" fill="none"></path></g><g transform="translate(415.5 277.83337402343756) rotate(0 46.5 11.5)"><text x="46.5" y="18" font-family="Helvetica" font-size="20px" fill="#000000" text-anchor="middle" style="white-space: pre;" direction="ltr">pod-qwem</text></g><g transform="translate(12.3333740234375 336.6666870117188) rotate(0 52.5 11.5)"><text x="0" y="18" font-family="Helvetica" font-size="20px" fill="#000000" text-anchor="start" style="white-space: pre;" direction="ltr">NFS Server</text></g><g><g transform="translate(292.99999999999955 430.6666870117188) rotate(0 -93 2.666656494140625)"><path d="M0 0 C-31 0.888885498046875, -155 4.444427490234375, -186 5.33331298828125 M0 0 C-31 0.888885498046875, -155 4.444427490234375, -186 5.33331298828125" stroke="#000000" stroke-width="1" fill="none"></path></g><g transform="translate(292.99999999999955 430.6666870117188) rotate(0 -93 2.666656494140625)"><path d="M-158.11489209934084 -5.731078426007922 C-164.9309549749822 -3.0265671926582076, -171.7470178506236 -0.32205595930849285, -186 5.33331298828125 M-158.11489209934084 -5.731078426007922 C-168.33344356427173 -1.6765108949143501, -178.55199502920263 2.378056636179222, -186 5.33331298828125" stroke="#000000" stroke-width="1" fill="none"></path></g><g transform="translate(292.99999999999955 430.6666870117188) rotate(0 -93 2.666656494140625)"><path d="M-157.52671433709972 14.781699282187638 C-164.4865477379896 12.472194320541362, -171.4463811388795 10.162689358895086, -186 5.33331298828125 M-157.52671433709972 14.781699282187638 C-167.96080467515964 11.319319938030684, -178.39489501321953 7.856940593873732, -186 5.33331298828125" stroke="#000000" stroke-width="1" fill="none"></path></g></g><g><g transform="translate(405.6666259765625 245.3334350585938) rotate(0 -27.33331298828125 76)"><path d="M0 0 C-9.111104329427084 25.333333333333332, -45.555521647135414 126.66666666666667, -54.6666259765625 152 M0 0 C-9.111104329427084 25.333333333333332, -45.555521647135414 126.66666666666667, -54.6666259765625 152" stroke="#000000" stroke-width="1" fill="none"></path></g><g transform="translate(405.6666259765625 245.3334350585938) rotate(0 -27.33331298828125 76)"><path d="M-54.7812605674351 122.00021901895656 C-54.753140978254805 129.35909307489607, -54.72502138907452 136.7179671308356, -54.6666259765625 152 M-54.7812605674351 122.00021901895656 C-54.74102830875509 132.52896902002897, -54.70079605007509 143.05771902110138, -54.6666259765625 152" stroke="#000000" stroke-width="1" fill="none"></path></g><g transform="translate(405.6666259765625 245.3334350585938) rotate(0 -27.33331298828125 76)"><path d="M-35.470953659965055 128.94514879003088 C-40.179605869332356 134.60044829171034, -44.88825807869966 140.2557477933898, -54.6666259765625 152 M-35.470953659965055 128.94514879003088 C-42.207884007945594 137.03650001873055, -48.94481435592614 145.12785124743021, -54.6666259765625 152" stroke="#000000" stroke-width="1" fill="none"></path></g></g><g transform="translate(10 490.00000000000006) rotate(0 56.5 11.5)"><text x="0" y="18" font-family="Helvetica" font-size="20px" fill="#000000" text-anchor="start" style="white-space: pre;" direction="ltr">/volume1/nfs</text></g><g transform="translate(706.7777777777776 355.00000000000006) rotate(0 91 113.5)"><text x="0" y="17.7" font-family="Helvetica" font-size="20px" fill="#000000" text-anchor="start" style="white-space: pre;" direction="ltr">Service Account</text><text x="0" y="40.4" font-family="Helvetica" font-size="20px" fill="#000000" text-anchor="start" style="white-space: pre;" direction="ltr">Role</text><text x="0" y="63.099999999999994" font-family="Helvetica" font-size="20px" fill="#000000" text-anchor="start" style="white-space: pre;" direction="ltr">Role Binding</text><text x="0" y="85.8" font-family="Helvetica" font-size="20px" fill="#000000" text-anchor="start" style="white-space: pre;" direction="ltr">Cluster Role</text><text x="0" y="108.5" font-family="Helvetica" font-size="20px" fill="#000000" text-anchor="start" style="white-space: pre;" direction="ltr">Cluster Role Binding</text><text x="0" y="131.2" font-family="Helvetica" font-size="20px" fill="#000000" text-anchor="start" style="white-space: pre;" direction="ltr"></text><text x="0" y="153.9" font-family="Helvetica" font-size="20px" fill="#000000" text-anchor="start" style="white-space: pre;" direction="ltr">Storage class</text><text x="0" y="176.6" font-family="Helvetica" font-size="20px" fill="#000000" text-anchor="start" style="white-space: pre;" direction="ltr">Deployment</text><text x="0" y="199.29999999999998" font-family="Helvetica" font-size="20px" fill="#000000" text-anchor="start" style="white-space: pre;" direction="ltr">  ReplicaSet</text><text x="0" y="222" font-family="Helvetica" font-size="20px" fill="#000000" text-anchor="start" style="white-space: pre;" direction="ltr">    pod</text></g><g transform="translate(360.11111111111086 10) rotate(0 47.5 11.5)"><text x="0" y="18" font-family="Helvetica" font-size="20px" fill="#000000" text-anchor="start" style="white-space: pre;" direction="ltr">k8s cluster</text></g><g transform="translate(281.22215440538173 483.8889567057292) rotate(0 83.50000000000006 11.5)"><text x="0" y="18" font-family="Helvetica" font-size="20px" fill="#000000" text-anchor="start" style="white-space: pre;" direction="ltr">/persistentvolumes</text></g><g transform="translate(27.333401150173586 665.5555725097656) rotate(0 232 11.5)"><text x="0" y="18" font-family="Helvetica" font-size="20px" fill="#000000" text-anchor="start" style="white-space: pre;" direction="ltr">Credit: Venkat, Just me and Opensource @ Youtube</text></g><g><g transform="translate(421.2222561306421 437.3333333333333) rotate(0 134.44442749023438 2.2222391764323106)"><path d="M0 0 C44.81480916341146 0.7407463921441035, 224.07404581705728 3.7037319607205177, 268.88885498046875 4.444478352864621 M0 0 C44.81480916341146 0.7407463921441035, 224.07404581705728 3.7037319607205177, 268.88885498046875 4.444478352864621" stroke="#000000" stroke-width="1" fill="none"></path></g></g><g><g transform="translate(694.5555894639756 359.5556233723958) rotate(0 -0.555572509765625 105.00000000000007)"><path d="M0 0 C-0.18519083658854166 35.00000000000002, -0.9259541829427084 175.00000000000009, -1.11114501953125 210.0000000000001 M0 0 C-0.18519083658854166 35.00000000000002, -0.9259541829427084 175.00000000000009, -1.11114501953125 210.0000000000001" stroke="#000000" stroke-width="1" fill="none"></path></g></g></svg>